<?xml version="1.0" encoding="utf-8"?>
<!-- Generator: Adobe Illustrator 16.0.0, SVG Export Plug-In . SVG Version: 6.00 Build 0)  -->
<!DOCTYPE svg PUBLIC "-//W3C//DTD SVG 1.1//EN" "http://www.w3.org/Graphics/SVG/1.1/DTD/svg11.dtd">
<svg version="1.1" id="Layer_1" xmlns="http://www.w3.org/2000/svg" xmlns:xlink="http://www.w3.org/1999/xlink" x="0px" y="0px"
	 width="45px" height="60px" viewBox="0 0 45 60" enable-background="new 0 0 45 60" xml:space="preserve">
<g>
	<path fill="#3C3C3C" d="M42.838,54.546H2.106c-0.39,0-0.703,0.315-0.703,0.704v4.046C1.403,59.685,1.717,60,2.106,60h40.731
		c0.39,0,0.705-0.315,0.705-0.704V55.25C43.543,54.861,43.228,54.546,42.838,54.546"/>
	<path fill="#3C3C3C" d="M12.598,43.627h4.852c0.145,0,0.268-0.104,0.293-0.246l7.445-43.034C25.219,0.166,25.08,0,24.895,0h-4.852
		c-0.143,0-0.268,0.104-0.291,0.246L12.307,43.28C12.273,43.461,12.413,43.627,12.598,43.627"/>
	<path fill="#3C3C3C" d="M1.699,43.627h4.852c0.144,0,0.267-0.104,0.291-0.246l7.447-43.034C14.32,0.166,14.18,0,13.996,0H9.145
		C9,0,8.879,0.104,8.854,0.246L1.406,43.28C1.375,43.461,1.515,43.627,1.699,43.627"/>
	<path fill="#FF0050" d="M35.856,0h-2.399h-0.102h-2.398c-0.145,0-0.266,0.103-0.289,0.244l-7.449,43.04
		c-0.03,0.18,0.107,0.343,0.289,0.343h4.883c0.143,0,0.266-0.104,0.289-0.246l4.438-26.954c0.055-0.328,0.524-0.328,0.578,0
		l4.438,26.954c0.023,0.142,0.146,0.246,0.29,0.246h4.881c0.182,0,0.321-0.164,0.29-0.343l-7.449-43.04
		C36.12,0.103,35.998,0,35.856,0"/>
</g>
</svg>
